<svg width="200" height="101.85329264795068" viewBox="0 0 200 101.85329264795068">
  <g transform="matrix(2.0454915561752123,0,0,2.0454915561752123,-5.481917507100862,-22.582224751412273)" fill="#0a0a0a">
    <path d="M2.68 11.399999999999999 l6.56 -0.000039062 l0 10.8 l8.52 0 l0 -10.8 l6.56 0 l0 28.6 l-6.56 0 l0 -12.2 c-0.16 0.02668 -0.30668 0.05336 -0.44 0.08004 l-0.48 0.08 l-6.72 0 l-0.88 -0.16 l0 12.2 l-6.56 0 l0 -28.6 z M30.392000000000003 11.399999999999999 l16.84 0 c-0.26668 1.0133 -0.53336 1.9733 -0.80004 2.88 s-0.53336 1.84 -0.80004 2.8 l-8.8 0 c0 0.10668 0.01332 0.26 0.04 0.46 s0.04 0.35332 0.04 0.46 l0 4.2 l8.08 0 l0 5.72 l-8.08 0 l0 5.48 l-0.08 0.92 l10.56 0 l0 5.68 l-17 0 l0 -28.6 z M52.464000000000006 11.64 c1.28 -0.16 2.4533 -0.28668 3.52 -0.38 s2.2 -0.14 3.4 -0.14 c1.4667 0 2.9267 0.14 4.38 0.42 s2.7533 0.76668 3.9 1.46 s2.0734 1.6266 2.78 2.8 s1.06 2.6666 1.06 4.48 c0 1.04 -0.14 1.9733 -0.42 2.8 s-0.62668 1.5534 -1.04 2.18 s-0.87332 1.1734 -1.38 1.64 s-1 0.86 -1.48 1.18 l-0.2 0.12 l0.54 0.88 l1.32 2.2 l1.7 2.84 l1.7 2.82 l1.28 2.18 l0.5 0.84 l-7.32 0 l-7.56 -13.16 l0 13.2 l-6.68 0 l0 -28.36 z M59.144000000000005 26.560000000000002 l1.4 -0.64 c0.34668 -0.16 0.76 -0.36 1.24 -0.6 s0.94668 -0.55332 1.4 -0.94 s0.84 -0.84668 1.16 -1.38 s0.48 -1.1866 0.48 -1.96 c0 -0.82668 -0.12 -1.5134 -0.36 -2.06 s-0.57332 -0.98668 -1 -1.32 s-0.92668 -0.57332 -1.5 -0.72 s-1.1933 -0.22 -1.86 -0.22 l-0.46 0 l-0.5 0.04 l0 9.8 z M88.33600000000001 40.44 c-2.1867 0 -4.0468 -0.37332 -5.58 -1.12 s-2.7866 -1.7734 -3.76 -3.08 s-1.6866 -2.86 -2.14 -4.66 s-0.68 -3.7667 -0.68 -5.9 s0.22668 -4.1 0.68 -5.9 s1.1666 -3.3467 2.14 -4.64 s2.2266 -2.3 3.76 -3.02 s3.3933 -1.08 5.58 -1.08 s4.0468 0.36 5.58 1.08 s2.7866 1.7267 3.76 3.02 s1.68 2.84 2.12 4.64 s0.66 3.7667 0.66 5.9 s-0.22 4.1 -0.66 5.9 s-1.1467 3.3533 -2.12 4.66 s-2.2266 2.3334 -3.76 3.08 s-3.3933 1.12 -5.58 1.12 z M88.33600000000001 34.84 c1.84 0 3.1667 -0.76 3.98 -2.28 s1.22 -3.8133 1.22 -6.88 s-0.39332 -5.32 -1.18 -6.76 s-2.1134 -2.16 -3.98 -2.16 c-1.8933 0 -3.2466 0.72 -4.06 2.16 s-1.22 3.6933 -1.22 6.76 s0.40668 5.36 1.22 6.88 s2.1533 2.28 4.02 2.28 z"></path>
  </g>
  <g transform="matrix(1.0802398166677958,0,0,1.0802398166677958,-2.808539459263622,58.030987212206234)" fill="#0a0a0a">
    <path d="M2.6 11.399999999999999 l16.84 0 c-0.26668 1.0133 -0.53336 1.9733 -0.80004 2.88 s-0.53336 1.84 -0.80004 2.8 l-8.8 0 c0 0.10668 0.01332 0.26 0.04 0.46 s0.04 0.35332 0.04 0.46 l0 4.2 l8.08 0 l0 5.72 l-8.08 0 l0 5.48 l-0.08 0.92 l10.56 0 l0 5.68 l-17 0 l0 -28.6 z M25.792 16.4 l-3.8 0 l2.6 -5 l6.56 0 l9.48 15.68 l0.24 0.68 l0 -16.36 l6.24 0 l0 28.6 l-5.32 0 l-9.6 -15.8 l-0.2 -0.6 l0 16.4 l-6.2 0 l0 -23.6 z M68.744 29.759999999999998 l-4.2 -0.000039062 l2.64 -5.12 l7.76 0 l0 14.48 c-1.5467 0.53332 -3.0334 0.88664 -4.46 1.06 s-2.6734 0.26 -3.74 0.26 c-2.3467 0 -4.3868 -0.36 -6.12 -1.08 s-3.1733 -1.72 -4.32 -3 s-2 -2.8133 -2.56 -4.6 s-0.84 -3.7467 -0.84 -5.88 s0.29332 -4.1068 0.88 -5.92 s1.4467 -3.38 2.58 -4.7 s2.54 -2.3467 4.22 -3.08 s3.6 -1.1 5.76 -1.1 c1.2533 0 2.46 0.09332 3.62 0.28 s2.46 0.57336 3.9 1.16 l-2.72 5 c-0.50668 -0.21332 -1.12 -0.38 -1.84 -0.5 s-1.4933 -0.18 -2.32 -0.18 c-2.3733 0 -4.1668 0.74668 -5.38 2.24 s-1.82 3.76 -1.82 6.8 s0.6 5.2668 1.8 6.68 s3.0133 2.12 5.44 2.12 c0.64 0 1.2133 -0.05332 1.72 -0.16 l0 -4.76 z M80.216 11.399999999999999 l6.52 0 l0 28.6 l-6.52 0 l0 -28.6 z M93.928 16.4 l-3.8 0 l2.6 -5 l6.56 0 l9.48 15.68 l0.24 0.68 l0 -16.36 l6.24 0 l0 28.6 l-5.32 0 l-9.6 -15.8 l-0.2 -0.6 l0 16.4 l-6.2 0 l0 -23.6 z M122.12 11.399999999999999 l16.84 0 c-0.26668 1.0133 -0.53336 1.9733 -0.80004 2.88 s-0.53336 1.84 -0.80004 2.8 l-8.8 0 c0 0.10668 0.01332 0.26 0.04 0.46 s0.04 0.35332 0.04 0.46 l0 4.2 l8.08 0 l0 5.72 l-8.08 0 l0 5.48 l-0.08 0.92 l10.56 0 l0 5.68 l-17 0 l0 -28.6 z M144.112 11.399999999999999 l16.84 0 c-0.26668 1.0133 -0.53336 1.9733 -0.80004 2.88 s-0.53336 1.84 -0.80004 2.8 l-8.8 0 c0 0.10668 0.01332 0.26 0.04 0.46 s0.04 0.35332 0.04 0.46 l0 4.2 l8.08 0 l0 5.72 l-8.08 0 l0 5.48 l-0.08 0.92 l10.56 0 l0 5.68 l-17 0 l0 -28.6 z M166.184 11.64 c1.28 -0.16 2.4533 -0.28668 3.52 -0.38 s2.2 -0.14 3.4 -0.14 c1.4667 0 2.9267 0.14 4.38 0.42 s2.7533 0.76668 3.9 1.46 s2.0734 1.6266 2.78 2.8 s1.06 2.6666 1.06 4.48 c0 1.04 -0.14 1.9733 -0.42 2.8 s-0.62668 1.5534 -1.04 2.18 s-0.87332 1.1734 -1.38 1.64 s-1 0.86 -1.48 1.18 l-0.2 0.12 l0.54 0.88 l1.32 2.2 l1.7 2.84 l1.7 2.82 l1.28 2.18 l0.5 0.84 l-7.32 0 l-7.56 -13.16 l0 13.2 l-6.68 0 l0 -28.36 z M172.86399999999998 26.560000000000002 l1.4 -0.64 c0.34668 -0.16 0.76 -0.36 1.24 -0.6 s0.94668 -0.55332 1.4 -0.94 s0.84 -0.84668 1.16 -1.38 s0.48 -1.1866 0.48 -1.96 c0 -0.82668 -0.12 -1.5134 -0.36 -2.06 s-0.57332 -0.98668 -1 -1.32 s-0.92668 -0.57332 -1.5 -0.72 s-1.1933 -0.22 -1.86 -0.22 l-0.46 0 l-0.5 0.04 l0 9.8 z"></path>
  </g>
</svg>
